<svg width="46" height="26" viewBox="0 0 46 26" fill="none" xmlns="http://www.w3.org/2000/svg">
<path d="M26 21C26 19.3431 24.6569 18 23 18C21.3432 18 20 19.3431 20 21L26 21ZM20.8787 25.1213C22.0503 26.2929 23.9497 26.2929 25.1213 25.1213L44.2132 6.02946C45.3848 4.85789 45.3848 2.95839 44.2132 1.78682C43.0417 0.615243 41.1422 0.61524 39.9706 1.78681L23 18.7574L6.02946 1.78678C4.85789 0.615208 2.95839 0.615205 1.78682 1.78678C0.615244 2.95835 0.615241 4.85784 1.78681 6.02942L20.8787 25.1213ZM20 21L20 23L26 23L26 21L20 21Z" fill="white"/>
</svg>
