<svg width="40" height="23" viewBox="0 0 40 23" fill="none" xmlns="http://www.w3.org/2000/svg">
<path d="M0 2C0 0.89543 0.895431 0 2 0H38C39.1046 0 40 0.895431 40 2V3C40 4.10457 39.1046 5 38 5H2C0.895431 5 0 4.10457 0 3V2Z" fill="white"/>
<path d="M0 11C0 9.89543 0.895431 9 2 9H38C39.1046 9 40 9.89543 40 11V12C40 13.1046 39.1046 14 38 14H2C0.895431 14 0 13.1046 0 12V11Z" fill="white"/>
<path d="M0 20C0 18.8954 0.895431 18 2 18H28C29.1046 18 30 18.8954 30 20V21C30 22.1046 29.1046 23 28 23H2C0.89543 23 0 22.1046 0 21V20Z" fill="white"/>
</svg>
